<svg version="1.1" id="Layer_1" xmlns="http://www.w3.org/2000/svg" xmlns:xlink="http://www.w3.org/1999/xlink" x="0px" y="0px"
	 width="100%" viewBox="0 0 512 512" xml:space="preserve">
<path fill="#FFFFFF" opacity="1.000000" stroke="none" 
	d="
M284.000000,513.000000 
	C189.356308,513.000000 95.212616,513.000000 1.034460,513.000000 
	C1.034460,342.397949 1.034460,171.795883 1.034460,1.096914 
	C171.560379,1.096914 342.120819,1.096914 512.840637,1.096914 
	C512.840637,171.666550 512.840637,342.333252 512.840637,513.000000 
	C436.795868,513.000000 360.647919,513.000000 284.000000,513.000000 
M367.489929,447.005981 
	C379.242554,438.587891 391.647461,430.926453 402.553040,421.525757 
	C412.261047,413.157410 420.688568,403.184204 429.007416,393.349365 
	C444.567871,374.953217 455.659210,353.911133 464.015259,331.371460 
	C471.662109,310.744751 475.732117,289.319122 476.822144,267.480560 
	C477.724548,249.400955 477.568115,231.222031 473.015564,213.422424 
	C471.162292,206.176575 466.416992,201.328613 459.525696,200.261353 
	C451.804382,199.065521 443.977112,199.325836 438.677399,207.510880 
	C434.507111,213.951645 434.883118,220.605606 436.202087,227.177917 
	C439.445740,243.340683 439.721161,259.483215 438.068512,275.813477 
	C436.570709,290.613922 433.258606,304.878143 428.128876,318.860260 
	C417.449646,347.969055 400.664703,372.688171 377.381836,393.231323 
	C357.298584,410.951416 334.657654,423.690338 309.065277,431.514832 
	C285.806427,438.625854 262.130402,441.084290 238.100266,437.844513 
	C225.444229,436.138214 212.690506,433.785675 200.542801,429.946838 
	C169.065186,419.999512 142.572266,402.165619 120.652832,377.308105 
	C106.583862,361.353333 95.687798,343.611816 87.561279,324.072479 
	C80.514587,307.129456 76.191452,289.366913 75.268204,271.160797 
	C74.577766,257.545532 75.899170,243.768585 77.102524,230.132263 
	C78.569313,213.510742 83.861237,197.799973 90.774223,182.702789 
	C103.018631,155.962448 120.360008,133.186676 143.544998,114.829315 
	C159.780960,101.974068 177.405411,91.764427 196.940887,85.041313 
	C210.468124,80.385933 224.274490,76.926323 238.704422,75.820969 
	C252.750809,74.744980 266.638947,74.515686 280.594330,76.741020 
	C286.585602,77.696388 292.766235,78.152374 298.817596,77.878746 
	C307.530396,77.484756 313.793213,69.168396 313.990631,62.693188 
	C314.354980,50.743477 309.584442,42.696716 300.162445,41.124592 
	C289.055084,39.271259 277.811859,37.450119 266.595764,37.229237 
	C252.759186,36.956749 238.650696,36.986897 225.096481,39.370262 
	C208.911224,42.216267 192.884933,46.819401 177.334320,52.227230 
	C152.305313,60.931240 130.263077,75.247330 110.716431,92.981842 
	C87.829865,113.746643 69.535431,137.976318 56.692024,166.413208 
	C44.995941,192.309753 38.708057,219.326843 37.127728,247.463715 
	C36.185062,264.247375 37.915154,280.949738 40.897949,297.565491 
	C46.259769,327.433624 57.860207,354.746735 74.542656,379.814545 
	C85.691238,396.566925 99.435898,411.208038 114.757072,424.418610 
	C128.307083,436.101990 143.121887,445.806091 158.944733,453.855713 
	C175.278000,462.165009 192.467148,468.664612 210.583237,471.862640 
	C223.756882,474.188232 237.105301,475.750916 250.442383,476.833527 
	C257.793793,477.430267 265.279633,476.166992 272.710083,476.034729 
	C289.997894,475.727051 306.854065,472.330414 322.972992,466.699036 
	C338.028015,461.439362 352.323761,454.006287 367.489929,447.005981 
M212.367371,177.939438 
	C214.305313,176.747879 216.124435,175.268661 218.200394,174.411301 
	C231.926117,168.742615 246.161163,164.859421 261.088745,166.146652 
	C273.363708,167.205124 283.780792,156.021301 281.058350,143.108795 
	C279.712006,136.723007 273.373138,129.256683 267.815887,129.058029 
	C250.519928,128.439697 233.333405,128.991623 216.700699,134.684845 
	C193.839569,142.510010 174.332764,155.040817 158.616714,173.713196 
	C141.502472,194.046799 131.541885,217.377365 129.233658,243.528198 
	C127.394257,264.367615 129.259735,285.117493 137.381912,304.905029 
	C146.530121,327.192230 160.327606,345.766418 179.689713,360.230072 
	C198.509995,374.288940 219.746017,382.699677 242.888687,384.723114 
	C263.355560,386.512573 283.768707,384.919067 303.402039,377.129669 
	C324.883362,368.607086 343.228851,356.006561 357.469452,337.865265 
	C377.144073,312.801453 385.134247,283.882172 383.940704,252.320877 
	C383.368713,237.195633 370.429321,230.600449 357.734528,235.884323 
	C351.196960,238.605392 347.859711,244.214432 348.041656,251.366898 
	C348.512573,269.882294 344.750458,287.273682 335.272278,303.352142 
	C326.295898,318.579346 313.959015,330.374512 298.234894,338.125275 
	C281.867981,346.192810 264.554871,349.656616 246.033310,347.140961 
	C225.066071,344.293152 207.172119,336.011749 192.342850,320.852264 
	C170.789459,298.818878 162.572739,272.260803 167.241837,242.282669 
	C171.626801,214.129044 187.084930,192.732361 212.367371,177.939438 
M252.602188,275.058167 
	C259.481659,277.092743 265.347351,275.103607 270.241028,270.220581 
	C303.615814,236.918320 336.969452,203.594620 370.221375,170.169891 
	C373.121155,167.255081 375.936371,165.805206 380.183990,165.892914 
	C394.005920,166.178406 407.839142,165.875366 421.664368,166.063751 
	C426.864960,166.134583 431.123413,164.222916 434.608093,160.802124 
	C446.853149,148.781677 458.997498,136.655746 471.021942,124.414558 
	C477.744904,117.570412 478.813873,110.369164 474.423340,101.174812 
	C470.993744,93.992699 464.475616,91.974403 457.034851,91.993988 
	C447.372131,92.019424 437.709167,92.015793 428.046448,91.986870 
	C426.131531,91.981140 424.217163,91.804451 421.998108,91.691040 
	C421.998108,79.056297 422.149109,67.070091 421.937469,55.090298 
	C421.823425,48.636784 419.474152,42.988426 413.373169,39.868008 
	C403.727631,34.934685 396.322754,36.221794 388.588165,43.926308 
	C376.902893,55.566143 365.231720,67.220367 353.604950,78.918587 
	C349.838593,82.708092 347.892090,87.223381 347.951111,92.733986 
	C348.099243,106.560226 347.872986,120.391022 348.082123,134.215683 
	C348.139862,138.031631 346.942047,140.679779 344.255066,143.353348 
	C310.951355,176.490723 277.930786,209.914688 244.438171,242.859055 
	C233.768387,253.354187 237.850800,271.364014 252.602188,275.058167 
z"/>
<path fill="#6AAFE6" opacity="1.000000" stroke="none" 
	d="
M367.221802,447.267883 
	C352.323761,454.006287 338.028015,461.439362 322.972992,466.699036 
	C306.854065,472.330414 289.997894,475.727051 272.710083,476.034729 
	C265.279633,476.166992 257.793793,477.430267 250.442383,476.833527 
	C237.105301,475.750916 223.756882,474.188232 210.583237,471.862640 
	C192.467148,468.664612 175.278000,462.165009 158.944733,453.855713 
	C143.121887,445.806091 128.307083,436.101990 114.757072,424.418610 
	C99.435898,411.208038 85.691238,396.566925 74.542656,379.814545 
	C57.860207,354.746735 46.259769,327.433624 40.897949,297.565491 
	C37.915154,280.949738 36.185062,264.247375 37.127728,247.463715 
	C38.708057,219.326843 44.995941,192.309753 56.692024,166.413208 
	C69.535431,137.976318 87.829865,113.746643 110.716431,92.981842 
	C130.263077,75.247330 152.305313,60.931240 177.334320,52.227230 
	C192.884933,46.819401 208.911224,42.216267 225.096481,39.370262 
	C238.650696,36.986897 252.759186,36.956749 266.595764,37.229237 
	C277.811859,37.450119 289.055084,39.271259 300.162445,41.124592 
	C309.584442,42.696716 314.354980,50.743477 313.990631,62.693188 
	C313.793213,69.168396 307.530396,77.484756 298.817596,77.878746 
	C292.766235,78.152374 286.585602,77.696388 280.594330,76.741020 
	C266.638947,74.515686 252.750809,74.744980 238.704422,75.820969 
	C224.274490,76.926323 210.468124,80.385933 196.940887,85.041313 
	C177.405411,91.764427 159.780960,101.974068 143.544998,114.829315 
	C120.360008,133.186676 103.018631,155.962448 90.774223,182.702789 
	C83.861237,197.799973 78.569313,213.510742 77.102524,230.132263 
	C75.899170,243.768585 74.577766,257.545532 75.268204,271.160797 
	C76.191452,289.366913 80.514587,307.129456 87.561279,324.072479 
	C95.687798,343.611816 106.583862,361.353333 120.652832,377.308105 
	C142.572266,402.165619 169.065186,419.999512 200.542801,429.946838 
	C212.690506,433.785675 225.444229,436.138214 238.100266,437.844513 
	C262.130402,441.084290 285.806427,438.625854 309.065277,431.514832 
	C334.657654,423.690338 357.298584,410.951416 377.381836,393.231323 
	C400.664703,372.688171 417.449646,347.969055 428.128876,318.860260 
	C433.258606,304.878143 436.570709,290.613922 438.068512,275.813477 
	C439.721161,259.483215 439.445740,243.340683 436.202087,227.177917 
	C434.883118,220.605606 434.507111,213.951645 438.677399,207.510880 
	C443.977112,199.325836 451.804382,199.065521 459.525696,200.261353 
	C466.416992,201.328613 471.162292,206.176575 473.015564,213.422424 
	C477.568115,231.222031 477.724548,249.400955 476.822144,267.480560 
	C475.732117,289.319122 471.662109,310.744751 464.015259,331.371460 
	C455.659210,353.911133 444.567871,374.953217 429.007416,393.349365 
	C420.688568,403.184204 412.261047,413.157410 402.553040,421.525757 
	C391.647461,430.926453 379.242554,438.587891 367.221802,447.267883 
z"/>
<path fill="#6AAFE6" opacity="1.000000" stroke="none" 
	d="
M211.996735,177.998077 
	C187.084930,192.732361 171.626801,214.129044 167.241837,242.282669 
	C162.572739,272.260803 170.789459,298.818878 192.342850,320.852264 
	C207.172119,336.011749 225.066071,344.293152 246.033310,347.140961 
	C264.554871,349.656616 281.867981,346.192810 298.234894,338.125275 
	C313.959015,330.374512 326.295898,318.579346 335.272278,303.352142 
	C344.750458,287.273682 348.512573,269.882294 348.041656,251.366898 
	C347.859711,244.214432 351.196960,238.605392 357.734528,235.884323 
	C370.429321,230.600449 383.368713,237.195633 383.940704,252.320877 
	C385.134247,283.882172 377.144073,312.801453 357.469452,337.865265 
	C343.228851,356.006561 324.883362,368.607086 303.402039,377.129669 
	C283.768707,384.919067 263.355560,386.512573 242.888687,384.723114 
	C219.746017,382.699677 198.509995,374.288940 179.689713,360.230072 
	C160.327606,345.766418 146.530121,327.192230 137.381912,304.905029 
	C129.259735,285.117493 127.394257,264.367615 129.233658,243.528198 
	C131.541885,217.377365 141.502472,194.046799 158.616714,173.713196 
	C174.332764,155.040817 193.839569,142.510010 216.700699,134.684845 
	C233.333405,128.991623 250.519928,128.439697 267.815887,129.058029 
	C273.373138,129.256683 279.712006,136.723007 281.058350,143.108795 
	C283.780792,156.021301 273.363708,167.205124 261.088745,166.146652 
	C246.161163,164.859421 231.926117,168.742615 218.200394,174.411301 
	C216.124435,175.268661 214.305313,176.747879 211.996735,177.998077 
z"/>
<path fill="#1E4777" opacity="1.000000" stroke="none" 
	d="
M252.199127,275.020813 
	C237.850800,271.364014 233.768387,253.354187 244.438171,242.859055 
	C277.930786,209.914688 310.951355,176.490723 344.255066,143.353348 
	C346.942047,140.679779 348.139862,138.031631 348.082123,134.215683 
	C347.872986,120.391022 348.099243,106.560226 347.951111,92.733986 
	C347.892090,87.223381 349.838593,82.708092 353.604950,78.918587 
	C365.231720,67.220367 376.902893,55.566143 388.588165,43.926308 
	C396.322754,36.221794 403.727631,34.934685 413.373169,39.868008 
	C419.474152,42.988426 421.823425,48.636784 421.937469,55.090298 
	C422.149109,67.070091 421.998108,79.056297 421.998108,91.691040 
	C424.217163,91.804451 426.131531,91.981140 428.046448,91.986870 
	C437.709167,92.015793 447.372131,92.019424 457.034851,91.993988 
	C464.475616,91.974403 470.993744,93.992699 474.423340,101.174812 
	C478.813873,110.369164 477.744904,117.570412 471.021942,124.414558 
	C458.997498,136.655746 446.853149,148.781677 434.608093,160.802124 
	C431.123413,164.222916 426.864960,166.134583 421.664368,166.063751 
	C407.839142,165.875366 394.005920,166.178406 380.183990,165.892914 
	C375.936371,165.805206 373.121155,167.255081 370.221375,170.169891 
	C336.969452,203.594620 303.615814,236.918320 270.241028,270.220581 
	C265.347351,275.103607 259.481659,277.092743 252.199127,275.020813 
z"/>
</svg>